<svg xmlns="http://www.w3.org/2000/svg" viewBox="0 0 64 64">
  <rect width="64" height="64" rx="14" fill="#2e7d32"/>
  <!-- plate -->
  <circle cx="32" cy="32" r="19" fill="#ffffff"/>
  <circle cx="32" cy="32" r="12" fill="none" stroke="#2e7d32" stroke-width="2.5"/>
  <!-- fork -->
  <path d="M12 14v10a3 3 0 0 0 3 3v23" stroke="#ffffff" stroke-width="3.5" stroke-linecap="round" fill="none"/>
  <path d="M18 14v10a3 3 0 0 1-3 3" stroke="#ffffff" stroke-width="3.5" stroke-linecap="round" fill="none"/>
  <!-- knife -->
  <path d="M50 14c-3 6-3 12 0 14v22" stroke="#ffffff" stroke-width="3.5" stroke-linecap="round" fill="none"/>
  <!-- leaf on plate -->
  <path d="M32 26c5 0 7 4 7 8-4 0-8-2-8-7z" fill="#2e7d32"/>
  <path d="M31 27c-3 2-4 6-2 9" stroke="#2e7d32" stroke-width="1.8" stroke-linecap="round" fill="none"/>
</svg>
